<svg width="48" height="49" viewBox="0 0 48 49" fill="none" xmlns="http://www.w3.org/2000/svg">
<path fill-rule="evenodd" clip-rule="evenodd" d="M21.3501 0.242103C21.0997 0.284721 20.3211 0.411664 19.6199 0.524401C0.40913 3.61036 -6.81986 28.5133 7.62975 41.8279C25.6736 58.4543 54.0911 40.3188 46.8408 16.8042C43.6128 6.33499 31.5611 -1.49539 21.3501 0.242103ZM31.4534 9.70817C32.2029 10.1473 32.3706 10.4245 34.8361 15.2986L37.4301 20.4267L37.3254 23.0124C37.1724 26.7855 37.018 27.0538 34.3899 28.1114C33.2978 28.5511 32.3856 28.9322 32.3626 28.9587C32.3399 28.9851 32.6843 29.9434 33.1281 31.0883C34.3726 34.2988 32.1973 37.2935 28.6206 37.2935H27.5892L27.0043 35.0829C26.0789 31.5853 26.0763 31.5847 25.8102 34.8348C25.7527 35.536 25.6623 36.4863 25.6092 36.9467L25.5126 37.7838L23.7065 38.1151C21.0736 38.5983 20.9028 38.4211 20.3275 34.6071C20.126 33.2714 19.5729 34.4527 19.195 37.0256L19.0621 37.931L18.1143 37.906C15.4241 37.8355 14.605 36.2292 15.6233 33.0205C16.3751 30.6513 16.5764 30.8999 13.7081 30.6532C12.411 30.5415 11.312 30.4122 11.2659 30.3658C11.2198 30.3195 10.8778 29.7489 10.5059 29.0978L9.82966 27.914L10.0253 22.3014L10.2209 16.6886L11.3486 14.6821C11.9689 13.5784 12.5676 12.6459 12.6789 12.6096C12.7901 12.5732 14.9711 11.8063 17.5254 10.9049L22.1697 9.26633L26.4173 9.25613C30.6446 9.24593 30.6685 9.24811 31.4534 9.70817ZM26.8813 17.5824C26.7272 17.7363 26.5262 18.06 26.4344 18.3013C26.2552 18.7728 26.1985 22.9055 26.3714 22.9055C26.4284 22.9055 26.8325 22.6596 27.2693 22.3591C28.3766 21.5972 29.7673 21.5976 31.6716 22.36L33.0385 22.9073L33.5628 22.5339L34.0872 22.1606L33.7095 21.2126C33.5016 20.6912 33.166 19.837 32.9638 19.3143C32.4981 18.1112 32.0714 17.8391 30.3204 17.6285C27.518 17.2918 27.1765 17.2872 26.8813 17.5824ZM15.9455 18.9251C12.9255 20.548 12.6346 21.3807 13.8044 25.0573C13.8538 25.2123 14.2646 24.9586 14.9709 24.3368C15.8949 23.5236 16.2635 23.3282 17.3854 23.0577C19.1329 22.6365 19.387 22.6452 20.4067 23.1621C22.0936 24.0168 22.191 23.6345 21.0365 20.6928C19.6818 17.2417 19.3148 17.1142 15.9455 18.9251ZM23.3535 24.7987C22.7898 24.9988 21.103 28.2356 20.9982 29.3178C20.8983 30.3516 23.8509 30.1163 23.9935 29.079L24.1214 28.1498L24.8827 28.8971C25.7927 29.7902 25.6782 29.7793 26.8112 29.0821C27.9703 28.3689 25.4263 24.2079 24.0456 24.5585C24.0155 24.5661 23.7041 24.6743 23.3535 24.7987Z" fill="white"/>
</svg>
