<svg width="85" height="47" viewBox="0 0 85 47" fill="none" xmlns="http://www.w3.org/2000/svg">
<path fill-rule="evenodd" clip-rule="evenodd" d="M84.6485 15.8965C84.3595 15.2473 82.081 12.9399 79.0766 10.0224C74.3752 5.45573 73.5577 4.41344 73.0532 4.44958C72.5473 4.48575 71.9704 5.47379 70.4932 7.01008C69.0293 8.5328 68.1093 9.47114 67.7764 9.78896C66.9347 10.5917 66.9318 10.5179 66.2346 9.78896C66.0358 9.5811 63.9606 7.36553 62.3613 5.65454C60.5422 3.70705 59.1733 2.23703 58.8979 2.03972C58.3813 1.67072 58.0604 1.71138 57.7533 2.0834C57.166 2.79431 56.2293 3.9164 54.5307 5.80513C53.3771 7.08688 51.7027 8.88828 51.5851 9.01931C51.2961 9.34463 51.1636 9.36573 50.766 8.96808C50.3684 8.57046 43.8253 1.26254 43.1041 0.541091C42.3827 -0.180364 42.4383 -0.180364 41.7171 0.541091C40.9957 1.26254 34.4528 8.57046 34.0552 8.96808C33.6577 9.36422 33.5252 9.34314 33.2359 9.01931C33.1199 8.88828 31.4439 7.08688 30.2903 5.80513C28.5917 3.9164 27.655 2.79431 27.0677 2.0834C26.7606 1.71138 26.4414 1.67072 25.9233 2.03972C25.6478 2.23703 24.2789 3.70705 22.4598 5.65454C20.8605 7.36705 18.7854 9.5811 18.5867 9.78896C17.8894 10.5179 17.8864 10.5917 17.0446 9.78896C16.7118 9.47114 15.7917 8.5328 14.328 7.01008C12.8507 5.47379 12.2725 4.48575 11.768 4.44958C11.2635 4.41344 10.4458 5.45573 5.74442 10.0224C2.74018 12.9399 0.461772 15.2473 0.17264 15.8965C-0.114985 16.5441 0.0280749 17.7129 0.0973457 18.2024C0.38497 18.8094 2.14837 23.6607 3.96296 28.5529C6.401 35.1242 9.12213 42.4862 9.33446 42.9306C9.73203 43.7606 10.4955 45.241 11.1656 45.72C11.9231 46.2608 13.0585 46.7488 13.9606 46.7834C14.2587 46.7954 20.5639 46.8451 28.8823 46.7999C41.785 46.7278 43.0363 46.7278 55.9387 46.7999C64.2574 46.8467 70.5624 46.7954 70.8607 46.7834C71.7625 46.7472 72.898 46.2608 73.6554 45.72C74.3257 45.241 75.0892 43.7606 75.4868 42.9306C75.6988 42.4862 78.4201 35.1242 80.8582 28.5529C82.6728 23.6607 84.4361 18.8094 84.7238 18.2024C84.793 17.7129 84.9361 16.5441 84.6485 15.8965ZM77.4203 31.5607C75.8827 35.8576 73.3557 42.6294 73.1737 42.929C72.6692 43.759 71.8349 44.4339 70.8607 44.4701C70.5384 44.4821 60.61 44.5137 52.2719 44.5137H32.5493C24.2112 44.5137 14.2828 44.4821 13.9606 44.4701C12.9863 44.4339 12.152 43.759 11.6475 42.929C11.4653 42.6294 8.93843 35.8576 7.40091 31.5607C3.07148 19.4555 2.37877 17.9343 2.43147 17.1014C2.48719 16.2188 3.95242 14.9235 7.55151 11.378C9.68083 9.27986 11.4126 7.47698 11.6475 7.47698C11.8463 7.47698 12.1294 7.80081 13.1233 8.81747C14.6518 10.3779 16.6832 12.4759 17.0446 12.8721C17.406 13.2682 18.0807 13.3405 18.5867 12.8721C18.8502 12.6281 20.0187 11.3976 22.3092 8.81747C24.8346 5.97385 25.6297 5.17708 25.9233 4.90144C26.5362 4.32459 26.3284 4.43904 26.9775 5.05206C27.2755 5.33371 28.5135 6.70584 29.8387 8.21501C31.3973 9.98926 32.8218 11.6581 33.0009 11.8298C33.4182 12.2289 33.9586 12.2259 34.3562 11.8298C34.7538 11.4337 41.2035 3.94804 41.7352 3.39527C42.1868 2.92686 42.6387 2.92686 43.0905 3.39527C43.622 3.94804 50.0672 11.4337 50.4648 11.8298C50.8623 12.2259 51.4031 12.2289 51.8201 11.8298C51.9992 11.6581 53.4239 9.98926 54.9826 8.21501C56.3075 6.70584 57.5455 5.33371 57.8438 5.05206C58.4926 4.43904 58.285 4.32459 58.8979 4.90144C59.1914 5.17708 59.9865 5.97385 62.5119 8.81747C64.8024 11.3976 65.9709 12.6281 66.2346 12.8721C66.7389 13.3405 67.415 13.2682 67.7764 12.8721C68.1378 12.4759 70.1693 10.3779 71.6979 8.81747C72.6918 7.80233 72.9749 7.47698 73.1737 7.47698C73.4084 7.47698 75.1403 9.27986 77.2697 11.378C80.8686 14.9235 82.3338 16.2188 82.3897 17.1014C82.4424 17.9343 81.7497 19.4555 77.4203 31.5607ZM0.0822907 18.2672C0.150056 18.5232 0.133487 18.4494 0.0973457 18.2009C0.0506632 18.1015 0.0431376 18.1166 0.0822907 18.2672ZM84.7238 18.2024C84.6892 18.4494 84.6727 18.5232 84.7389 18.2687C84.7781 18.1166 84.7703 18.1015 84.7238 18.2024Z" fill="white"/>
<path fill-rule="evenodd" clip-rule="evenodd" d="M32.4844 32.9147H31.7135V33.6843H32.4844V32.9147ZM62.5391 32.1435V32.9131H70.2462V33.6827H71.0171V34.4526H71.7883V39.8445H71.0171V40.6141H70.2462V41.3837H62.5391V32.9102H56.3738V32.1406H52.5202V32.9102H55.6029V39.0733H60.997V41.3837H52.5189V32.9102H50.2072V32.1406H41.7307V32.9102H49.4379V33.6798H50.2088V34.4494H50.9797V36.7598H50.2088V37.5296H49.4379V38.2992H50.2088V39.0688H50.9797C50.9797 39.0688 50.9393 41.2499 50.9797 41.3792C51.0204 41.5088 47.8973 41.3792 47.8973 41.3792V39.8384H47.1261V39.0688H44.8147V41.3792H41.7321V32.9057H40.9611V33.6753H40.1902V32.9057H39.419V32.1361H32.4831V32.9057H38.6481V33.6753H39.419V34.4448H40.1902V39.8371H39.419V40.6067H38.6481V41.3763H32.4831V40.6067H31.7119V39.8371H30.9409V34.4448H31.7119V33.6753H30.9409V32.9057H30.17V32.1361H25.5454V32.9057H23.2338V32.1361H19.3802V32.9057H22.4628V35.9872H23.2338V35.2176H24.0048V34.448H24.7758V35.2176H25.5469V35.9872H26.3179V32.9057H29.4004V41.3792H26.3179V40.6096H25.5469V39.84H24.7758V39.0704H24.0048V39.84H23.2338V40.6096H22.4628V41.3792H19.3802V32.9057H9.36158V34.4464H10.1326V36.7568H10.9036V39.0672H11.6746V41.3779H12.4456V42.1475H13.2166V42.9171H17.8412V42.1475H19.3833V42.9171H24.0078V42.1475H24.7789V41.3779H25.5499V42.1475H26.3209V42.9171H30.9455V41.3763H31.7164V42.1459H32.4876V42.9155H40.1947V42.1459H41.7366V42.9155H46.3613V41.3747H47.1323V42.1445H47.9032V42.9141H52.5279V42.1445H53.2989V42.9141H62.5465V42.1445H63.3175V42.9141H71.7942V42.1445H72.5651V41.3747H73.3363V39.0643H74.1072V36.7539H74.8782V34.4435H75.6494V32.9025H71.0246V32.1435H62.5391ZM17.0702 40.617H16.2992V41.3869H13.9877V40.617H13.2166V38.3067H13.9877V37.5371H16.2992V38.3067H17.0702V40.617ZM34.7961 39.0779H36.338V38.3083H37.1092V35.9979H36.338V35.228H34.7961V35.9979H34.0249V38.3083H34.7961V39.0779ZM47.1261 36.7659H47.8973V35.2251H47.1261V34.4555H44.8147V37.5371H47.1261V36.7659ZM67.9345 38.3067H68.7057V35.9963H67.9345V35.2267H65.6231V39.0779H67.9345V38.3067ZM19.5369 30.3978C19.5399 30.5258 19.6182 30.6086 19.6904 30.6027C20.3516 30.5559 22.1059 30.5455 24.0063 30.5514C26.4278 30.5591 29.0406 30.6794 29.2469 30.4492C29.703 29.9369 29.6836 26.1791 29.4004 25.9817C29.1189 25.7844 28.9653 26.6142 28.3735 26.7257C27.7801 26.8388 24.818 26.5496 24.3662 26.8026C23.9145 27.057 23.2353 27.5211 23.2353 27.5211C23.2353 27.5211 23.2353 21.6651 23.2353 21.1018C23.7774 21.0837 24.1223 21.1138 24.5454 20.9738C24.9686 20.8322 25.9971 19.0278 26.4218 18.7085C26.747 18.4645 27.3027 18.2928 26.2923 18.3545C25.6342 18.3952 23.9581 18.4253 23.2097 18.4057C23.1962 17.3333 23.1856 16.9463 23.1585 16.3769C23.1239 15.663 23.0667 14.7216 23.0305 14.3225C23.419 14.3075 23.7368 14.3059 24.0063 14.3225C24.3843 14.3451 24.4807 14.693 24.7774 15.1705C24.9912 15.5139 25.2457 15.898 25.4459 16.0185C25.6598 16.1465 26.4504 16.0591 27.4248 16.0697C28.4382 16.0817 29.5827 16.0787 29.84 15.8904C30.3869 15.4898 29.9939 15.5922 29.7634 15.6856C29.5856 15.7564 28.7213 15.1449 28.0422 14.2216C27.4549 13.4248 27.0589 12.4895 26.3465 12.2184C26.1056 12.1265 25.3872 12.1822 24.7277 12.1672C23.8061 12.1461 23.4943 12.0828 23.0832 12.116C22.7022 12.1461 22.6571 12.4503 21.3876 13.6568C20.6452 14.3617 20.1723 14.8105 19.8938 15.1735C19.6784 15.4536 19.5369 15.6826 19.5384 15.9417C19.5414 16.5276 19.5775 18.9389 19.6152 22.6697C19.6513 26.4335 19.5323 30.169 19.5369 30.3978ZM30.1713 29.8331C30.1594 30.211 30.6112 30.6027 30.9425 30.6027C31.1155 30.6027 31.846 30.6011 32.6124 30.6027C33.3367 30.6041 34.0656 30.6163 34.2314 30.5772C34.7447 30.455 34.6258 30.3316 34.2314 30.3209C33.8338 30.3105 33.8924 29.6357 33.8969 29.2682C33.9241 26.9517 33.9046 22.876 33.8969 22.1561C34.7072 22.0582 36.7025 21.8639 37.8785 22.0025C37.8785 22.4724 37.7941 29.3089 37.8785 29.8345C37.9479 30.2669 37.9402 30.6041 38.6497 30.6041C38.8815 30.6041 39.4672 30.6086 40.0968 30.6102C41.0335 30.6131 42.062 30.6086 42.1432 30.5785C42.2893 30.5242 42.2667 30.4023 42.1176 30.3481C41.9127 30.2743 41.8255 29.9867 41.7321 29.5002C41.6072 28.848 41.9625 18.2762 41.7321 17.508C41.7007 17.4011 41.6118 17.2189 41.413 17.0532C40.1647 16.0154 36.9689 13.3586 35.9782 12.5001C35.6288 12.1973 35.472 12.2003 35.0641 12.6175C33.7388 13.9686 32.7465 15.2744 30.6594 17.0713C30.0298 17.6135 30.1519 17.9509 30.1713 18.5609C30.2648 21.4211 30.2017 28.8767 30.1713 29.8331ZM34.3594 15.916C34.4903 15.8889 35.2432 16.6375 35.9013 17.2249C36.6709 17.9132 37.0623 18.2536 37.6994 18.7657C37.8875 18.9163 37.9493 19.1061 37.9312 19.4585C37.8937 20.177 37.8801 21.3593 37.8801 21.3593C37.8801 21.3593 35.3004 21.2614 33.8985 21.3337C33.8969 20.43 33.8849 17.5834 33.7705 16.532C34.0401 16.2007 34.254 15.9371 34.3594 15.916ZM40.8842 15.5305C41.05 15.4672 41.1825 15.4883 41.3978 15.7097C41.6871 16.0064 42.0921 16.3573 42.3992 16.6601C42.6326 16.889 42.6898 17.0668 42.6823 17.3017C42.619 19.3471 42.8087 27.2846 42.4247 29.7818C42.3239 30.4356 42.2802 30.5695 42.7592 30.5785C45.1912 30.6208 46.4034 30.5032 48.4107 30.5019C49.721 30.5019 51.6048 30.6041 52.1362 30.5785C52.3984 30.5665 52.4707 30.5455 52.5218 30.3994C52.6317 30.0859 52.558 28.0135 52.6243 26.6249C52.6573 25.9245 52.4979 26.0164 52.3411 26.2649C52.186 26.5134 52.1378 26.6294 51.4678 26.7273C50.9933 26.7965 48.2707 26.6142 47.4606 26.8809C46.8055 27.0964 46.3808 27.4397 45.8674 27.9336C46.2301 27.1249 46.2815 24.956 46.2679 22.385C46.2528 19.7824 46.2783 16.9734 46.3808 15.6329C46.4005 15.3874 46.3536 15.1886 46.1761 15.0425C45.4217 14.4234 43.9474 13.1522 43.5302 12.8856C43.3795 12.7892 43.1733 12.863 43.0227 13.0046C42.4144 13.5709 41.4792 14.7653 40.91 15.3C40.5228 15.663 40.5455 15.66 40.8842 15.5305ZM51.2884 15.7097C51.5175 15.663 51.8848 15.913 52.3667 16.3513C52.6844 16.6405 52.9601 16.9282 53.1634 17.1993C53.2792 17.3544 53.3124 17.4614 53.317 17.7641C53.3351 18.8772 53.1828 29.3722 53.2914 29.8331C53.3997 30.2924 53.6829 30.5229 54.0623 30.6027C54.246 30.6418 55.0789 30.5892 55.9371 30.6027C56.8544 30.6163 57.5652 30.6027 57.7097 30.5003C57.9085 30.3587 57.9098 30.3526 57.6072 30.3723C57.285 30.3933 57.1524 30.1628 57.145 29.8331C57.0665 26.7212 57.2956 19.1407 57.3241 17.9433C57.3483 16.9854 57.3196 16.5306 57.1961 16.3001C57.3377 16.1811 57.4417 16.0817 57.6328 15.9401C57.8707 16.2384 58.2637 16.6646 58.4551 16.9673C58.6884 17.3349 59.044 18.0006 59.0453 18.1226C59.0618 19.1166 59.0304 19.4329 59.0708 20.1514C59.0876 20.436 59.5075 20.7538 60.5347 21.4873C61.2245 21.9784 61.7892 22.385 61.9217 22.6426C62.1263 23.0387 62.146 23.0357 62.1535 22.5146C62.1806 20.6288 62.2272 18.216 62.2046 16.9417C62.1987 16.6074 62.1325 16.4176 61.9472 16.145C62.1189 16.0275 62.2123 15.9221 62.435 15.785C62.6956 15.9823 63.0811 16.4357 63.3853 16.8122C63.7137 17.2204 64.1246 17.9012 64.1232 18.0789C64.1142 18.8651 63.917 29.2094 64.078 29.8315C64.2406 30.4534 64.5267 30.5953 64.7467 30.6011C64.9666 30.6072 65.8325 30.6011 66.647 30.6011C67.4619 30.6011 68.1604 30.6267 68.3427 30.4987C68.6197 30.3044 68.6048 30.2895 68.3172 30.3451C68.046 30.3978 67.9526 30.071 67.9316 29.8315C67.8999 29.4805 67.9332 17.8018 67.906 17.3002C67.8909 17.0216 67.0883 15.5109 66.1079 14.5273C65.4288 13.8466 64.6834 13.0739 64.0525 12.5498C63.8249 12.3615 63.652 12.238 63.2557 12.601C62.7754 13.0408 61.765 13.9159 60.9954 14.4761C60.4339 13.6267 60.226 13.3691 59.4807 12.5241C59.1387 12.1371 58.8556 12.2244 58.6073 12.4729C57.9401 13.1387 57.5213 13.6493 56.4491 14.5785C56.0366 14.083 55.3003 13.1583 54.5488 12.5241C54.3122 12.3253 54.073 12.2003 53.829 12.4985C53.6948 12.6612 53.2265 13.229 52.5955 13.9626C52.0098 14.6433 51.5024 15.16 51.2088 15.4521C50.8969 15.7654 50.9393 15.7805 51.2884 15.7097ZM76.7984 18.7145C77.0182 18.5789 77.5361 17.8424 78.262 17.1225C78.8313 16.5592 79.4577 16.148 79.4952 15.9673C79.5404 15.7473 78.5045 14.9099 77.4398 13.9128C76.5092 13.0408 75.6371 11.9458 75.3588 11.756C74.9189 11.4548 74.4024 11.4789 73.7653 12.0648C73.2759 12.5136 72.5547 13.5092 71.4538 14.6072C70.3636 15.6946 69.3758 16.5125 68.9362 17.0216C68.5098 17.5156 68.0566 18.4012 68.7041 19.0504C68.8864 19.2326 70.2026 21.0656 72.7112 22.9016C74.3015 24.0659 76.7923 25.7573 76.9504 26.3688C77.0137 26.6129 76.8993 26.8372 76.8479 27.1129C75.577 26.6278 71.3711 26.6821 70.2462 26.7529C69.5762 26.7952 69.2778 26.6837 69.2448 26.3161C69.186 25.676 69.4404 25.5947 69.528 25.0841C69.6392 24.4198 69.5881 24.6804 69.2959 25.1353C69.1528 25.3597 69.0852 25.3793 68.8592 25.8025C68.5551 26.3719 68.7057 27.271 68.7312 28.0361C68.7642 29.0859 68.6695 29.8286 68.8592 30.1929C68.9617 30.3888 69.1514 30.5019 69.3984 30.5019C70.9224 30.5003 74.2414 30.3949 76.1281 30.5785C76.3375 30.5995 76.717 30.5546 76.9248 30.1929C77.2471 29.6341 77.476 27.9895 77.7469 27.0089C78.4411 24.4906 79.1189 23.3941 78.7621 22.873C78.4411 22.4061 76.3479 20.8864 74.6645 19.5625C73.4265 18.588 71.5579 16.6044 71.2731 16.1992C71.3937 15.9989 71.886 15.4702 72.121 15.2232C72.4733 14.8527 72.782 14.5439 73.0457 14.3752C73.4521 14.7096 74.3978 15.5229 74.6645 15.788C75.0756 16.1962 75.6086 16.7565 76.4112 17.5849C76.7907 17.978 76.7982 18.1632 76.6688 18.5097C76.5108 18.9269 76.4895 18.9058 76.7984 18.7145ZM9.44139 30.3978C9.2938 30.3587 9.25013 29.9505 9.23507 29.1356C9.15225 24.8461 9.40525 21.5581 9.28779 18.9208C9.23808 17.8093 9.06188 15.6525 9.03027 15.3C9.3962 14.812 9.93832 14.3059 10.1868 14.1192C10.9051 14.3963 11.8116 15.2307 12.5751 15.9943C13.4124 16.8288 14.0991 17.6994 14.2452 17.8951C14.5117 18.2521 14.5569 18.4344 14.2452 18.7431C14.0674 18.9193 13.5043 19.3441 13.0374 19.6935C12.4125 20.1619 11.9276 20.5385 11.4442 20.9256C11.0195 21.2659 10.8072 21.5295 11.1867 21.9272C11.5466 22.3037 12.1761 22.8354 12.9335 23.4424C13.7527 24.0991 14.4063 24.7211 14.706 25.0344C14.8656 25.2016 14.8641 25.2573 14.8761 25.441C14.9499 26.6142 14.8054 29.1101 14.8596 29.5529C14.9514 30.2863 15.4634 30.6102 15.6818 30.6056C15.9423 30.6011 18.3939 30.6357 18.662 30.5801C18.9993 30.5093 18.9857 30.4234 18.7388 30.3752C18.5324 30.3345 18.4572 29.6011 18.534 27.0121C18.5596 26.1414 18.6364 24.4485 18.3804 23.7255C18.2975 23.4936 16.9076 22.3218 16.1712 21.7223C15.1472 20.8879 14.194 20.1484 14.0133 19.8727C14.6247 19.3817 16.6606 17.8168 17.0702 17.4328C17.3909 17.133 17.5476 16.6209 17.2238 16.1239C17.0476 15.8528 16.0251 14.4008 15.0403 13.4791C13.1654 11.7244 12.2062 11.5467 11.7258 11.5783C11.2605 11.6099 10.0287 13.0302 9.10555 13.9671C7.23524 15.8618 6.15251 16.7655 5.32878 17.5879C4.57585 18.3395 4.66318 18.2144 4.91769 19.0263C6.12842 22.879 8.10415 30.0921 8.36015 30.3497C8.60861 30.5995 8.98059 30.6072 9.28478 30.5801C9.66878 30.5455 9.67631 30.4596 9.44139 30.3978Z" fill="white"/>
</svg>
